<svg width="20" height="18" viewBox="0 0 20 18" fill="none" xmlns="http://www.w3.org/2000/svg">
<mask id="path-1-outside-1_2_2767" maskUnits="userSpaceOnUse" x="-0.84375" y="0.0322266" width="21" height="18" fill="black">
<rect fill="white" x="-0.84375" y="0.0322266" width="21" height="18"/>
<path d="M19.7031 9.3281L17.8281 11.2031C17.7858 11.2475 17.7349 11.2829 17.6785 11.3071C17.6221 11.3313 17.5614 11.3437 17.5 11.3437C17.4386 11.3437 17.3779 11.3313 17.3215 11.3071C17.2651 11.2829 17.2142 11.2475 17.1719 11.2031L15.2969 9.3281C15.2099 9.24108 15.161 9.12305 15.161 8.99998C15.161 8.8769 15.2099 8.75887 15.2969 8.67185C15.3839 8.58483 15.5019 8.53594 15.625 8.53594C15.7481 8.53594 15.8661 8.58483 15.9531 8.67185L17.0312 9.74216V8.99998C17.0307 7.4824 16.5392 6.00574 15.6301 4.79058C14.721 3.57543 13.4432 2.687 11.9875 2.25803C10.5318 1.82907 8.97643 1.88258 7.55367 2.41057C6.13091 2.93857 4.91716 3.91271 4.09375 5.18747C4.02525 5.29092 3.91853 5.36299 3.79698 5.38789C3.67543 5.41278 3.54897 5.38847 3.44531 5.32029C3.39372 5.28772 3.34911 5.24523 3.31407 5.19529C3.27902 5.14535 3.25424 5.08895 3.24116 5.02935C3.22808 4.96976 3.22696 4.90817 3.23786 4.84814C3.24877 4.78811 3.27148 4.73085 3.30469 4.67966C4.23759 3.23425 5.6132 2.12956 7.22591 1.53068C8.83863 0.931795 10.6018 0.870893 12.252 1.35707C13.9022 1.84325 15.3508 2.8504 16.3812 4.228C17.4116 5.60559 17.9685 7.27965 17.9688 8.99998V9.74216L19.0469 8.67185C19.1339 8.58483 19.2519 8.53594 19.375 8.53594C19.4981 8.53594 19.6161 8.58483 19.7031 8.67185C19.7901 8.75887 19.839 8.8769 19.839 8.99998C19.839 9.12305 19.7901 9.24108 19.7031 9.3281ZM16.6953 13.3203C15.7624 14.7657 14.3868 15.8704 12.7741 16.4693C11.1614 17.0682 9.39815 17.1291 7.74796 16.6429C6.09777 16.1567 4.64922 15.1495 3.61881 13.772C2.5884 12.3944 2.03147 10.7203 2.03125 8.99998V8.25779L0.953125 9.3281C0.910804 9.37254 0.859898 9.40791 0.803495 9.43209C0.747091 9.45626 0.686365 9.46873 0.625 9.46873C0.563635 9.46873 0.502909 9.45626 0.446505 9.43209C0.390102 9.40791 0.339196 9.37254 0.296875 9.3281C0.252438 9.28578 0.21706 9.23487 0.192887 9.17847C0.168714 9.12207 0.15625 9.06134 0.15625 8.99998C0.15625 8.93861 0.168714 8.87788 0.192887 8.82148C0.21706 8.76508 0.252438 8.71417 0.296875 8.67185L2.17187 6.79685C2.2142 6.75241 2.2651 6.71704 2.32151 6.69286C2.37791 6.66869 2.43863 6.65623 2.5 6.65623C2.56137 6.65623 2.62209 6.66869 2.67849 6.69286C2.7349 6.71704 2.7858 6.75241 2.82813 6.79685L4.70313 8.67185C4.74622 8.71494 4.7804 8.7661 4.80372 8.8224C4.82704 8.8787 4.83904 8.93904 4.83904 8.99998C4.83904 9.06091 4.82704 9.12126 4.80372 9.17756C4.7804 9.23386 4.74622 9.28501 4.70313 9.3281C4.66004 9.37119 4.60888 9.40537 4.55258 9.42869C4.49628 9.45201 4.43594 9.46401 4.375 9.46401C4.31406 9.46401 4.25372 9.45201 4.19742 9.42869C4.14112 9.40537 4.08996 9.37119 4.04687 9.3281L2.96875 8.25779V8.99998C2.96724 10.79 3.6523 12.5125 4.88281 13.8125C5.62114 12.6703 6.72163 11.8092 8.00781 11.3672C7.36576 10.9395 6.87835 10.3166 6.61766 9.59056C6.35697 8.86451 6.33684 8.07384 6.56023 7.33545C6.78362 6.59707 7.23869 5.95017 7.85815 5.4904C8.4776 5.03063 9.22856 4.78239 10 4.78239C10.7714 4.78239 11.5224 5.03063 12.1419 5.4904C12.7613 5.95017 13.2164 6.59707 13.4398 7.33545C13.6632 8.07384 13.643 8.86451 13.3823 9.59056C13.1216 10.3166 12.6342 10.9395 11.9922 11.3672C13.2816 11.8074 14.3834 12.6723 15.1172 13.8203C15.4117 13.5103 15.6759 13.1728 15.9063 12.8125C15.9748 12.709 16.0815 12.637 16.203 12.6121C16.3246 12.5872 16.451 12.6115 16.5547 12.6797C16.6063 12.7122 16.6509 12.7547 16.6859 12.8047C16.721 12.8546 16.7458 12.911 16.7588 12.9706C16.7719 13.0302 16.773 13.0918 16.7621 13.1518C16.7512 13.2118 16.7285 13.2691 16.6953 13.3203ZM10 11.0312C10.5254 11.0312 11.0389 10.8754 11.4757 10.5836C11.9126 10.2917 12.253 9.87684 12.4541 9.39148C12.6551 8.90611 12.7077 8.37203 12.6052 7.85677C12.5027 7.3415 12.2497 6.86821 11.8783 6.49672C11.5068 6.12524 11.0335 5.87226 10.5182 5.76976C10.0029 5.66727 9.46886 5.71987 8.9835 5.92092C8.49813 6.12197 8.08328 6.46242 7.79141 6.89924C7.49954 7.33606 7.34375 7.84962 7.34375 8.37498C7.34581 9.07882 7.62633 9.75325 8.12402 10.251C8.62172 10.7486 9.29615 11.0292 10 11.0312ZM10 16.0312C11.6098 16.0343 13.1714 15.4825 14.4219 14.4687C13.9623 13.7069 13.3138 13.0767 12.539 12.6393C11.7643 12.2018 10.8897 11.972 10 11.972C9.1103 11.972 8.2357 12.2018 7.46097 12.6393C6.68624 13.0767 6.03767 13.7069 5.57813 14.4687C6.82952 15.4808 8.39055 16.0324 10 16.0312Z"/>
</mask>
<path d="M19.7031 9.3281L17.8281 11.2031C17.7858 11.2475 17.7349 11.2829 17.6785 11.3071C17.6221 11.3313 17.5614 11.3437 17.5 11.3437C17.4386 11.3437 17.3779 11.3313 17.3215 11.3071C17.2651 11.2829 17.2142 11.2475 17.1719 11.2031L15.2969 9.3281C15.2099 9.24108 15.161 9.12305 15.161 8.99998C15.161 8.8769 15.2099 8.75887 15.2969 8.67185C15.3839 8.58483 15.5019 8.53594 15.625 8.53594C15.7481 8.53594 15.8661 8.58483 15.9531 8.67185L17.0312 9.74216V8.99998C17.0307 7.4824 16.5392 6.00574 15.6301 4.79058C14.721 3.57543 13.4432 2.687 11.9875 2.25803C10.5318 1.82907 8.97643 1.88258 7.55367 2.41057C6.13091 2.93857 4.91716 3.91271 4.09375 5.18747C4.02525 5.29092 3.91853 5.36299 3.79698 5.38789C3.67543 5.41278 3.54897 5.38847 3.44531 5.32029C3.39372 5.28772 3.34911 5.24523 3.31407 5.19529C3.27902 5.14535 3.25424 5.08895 3.24116 5.02935C3.22808 4.96976 3.22696 4.90817 3.23786 4.84814C3.24877 4.78811 3.27148 4.73085 3.30469 4.67966C4.23759 3.23425 5.6132 2.12956 7.22591 1.53068C8.83863 0.931795 10.6018 0.870893 12.252 1.35707C13.9022 1.84325 15.3508 2.8504 16.3812 4.228C17.4116 5.60559 17.9685 7.27965 17.9688 8.99998V9.74216L19.0469 8.67185C19.1339 8.58483 19.2519 8.53594 19.375 8.53594C19.4981 8.53594 19.6161 8.58483 19.7031 8.67185C19.7901 8.75887 19.839 8.8769 19.839 8.99998C19.839 9.12305 19.7901 9.24108 19.7031 9.3281ZM16.6953 13.3203C15.7624 14.7657 14.3868 15.8704 12.7741 16.4693C11.1614 17.0682 9.39815 17.1291 7.74796 16.6429C6.09777 16.1567 4.64922 15.1495 3.61881 13.772C2.5884 12.3944 2.03147 10.7203 2.03125 8.99998V8.25779L0.953125 9.3281C0.910804 9.37254 0.859898 9.40791 0.803495 9.43209C0.747091 9.45626 0.686365 9.46873 0.625 9.46873C0.563635 9.46873 0.502909 9.45626 0.446505 9.43209C0.390102 9.40791 0.339196 9.37254 0.296875 9.3281C0.252438 9.28578 0.21706 9.23487 0.192887 9.17847C0.168714 9.12207 0.15625 9.06134 0.15625 8.99998C0.15625 8.93861 0.168714 8.87788 0.192887 8.82148C0.21706 8.76508 0.252438 8.71417 0.296875 8.67185L2.17187 6.79685C2.2142 6.75241 2.2651 6.71704 2.32151 6.69286C2.37791 6.66869 2.43863 6.65623 2.5 6.65623C2.56137 6.65623 2.62209 6.66869 2.67849 6.69286C2.7349 6.71704 2.7858 6.75241 2.82813 6.79685L4.70313 8.67185C4.74622 8.71494 4.7804 8.7661 4.80372 8.8224C4.82704 8.8787 4.83904 8.93904 4.83904 8.99998C4.83904 9.06091 4.82704 9.12126 4.80372 9.17756C4.7804 9.23386 4.74622 9.28501 4.70313 9.3281C4.66004 9.37119 4.60888 9.40537 4.55258 9.42869C4.49628 9.45201 4.43594 9.46401 4.375 9.46401C4.31406 9.46401 4.25372 9.45201 4.19742 9.42869C4.14112 9.40537 4.08996 9.37119 4.04687 9.3281L2.96875 8.25779V8.99998C2.96724 10.79 3.6523 12.5125 4.88281 13.8125C5.62114 12.6703 6.72163 11.8092 8.00781 11.3672C7.36576 10.9395 6.87835 10.3166 6.61766 9.59056C6.35697 8.86451 6.33684 8.07384 6.56023 7.33545C6.78362 6.59707 7.23869 5.95017 7.85815 5.4904C8.4776 5.03063 9.22856 4.78239 10 4.78239C10.7714 4.78239 11.5224 5.03063 12.1419 5.4904C12.7613 5.95017 13.2164 6.59707 13.4398 7.33545C13.6632 8.07384 13.643 8.86451 13.3823 9.59056C13.1216 10.3166 12.6342 10.9395 11.9922 11.3672C13.2816 11.8074 14.3834 12.6723 15.1172 13.8203C15.4117 13.5103 15.6759 13.1728 15.9063 12.8125C15.9748 12.709 16.0815 12.637 16.203 12.6121C16.3246 12.5872 16.451 12.6115 16.5547 12.6797C16.6063 12.7122 16.6509 12.7547 16.6859 12.8047C16.721 12.8546 16.7458 12.911 16.7588 12.9706C16.7719 13.0302 16.773 13.0918 16.7621 13.1518C16.7512 13.2118 16.7285 13.2691 16.6953 13.3203ZM10 11.0312C10.5254 11.0312 11.0389 10.8754 11.4757 10.5836C11.9126 10.2917 12.253 9.87684 12.4541 9.39148C12.6551 8.90611 12.7077 8.37203 12.6052 7.85677C12.5027 7.3415 12.2497 6.86821 11.8783 6.49672C11.5068 6.12524 11.0335 5.87226 10.5182 5.76976C10.0029 5.66727 9.46886 5.71987 8.9835 5.92092C8.49813 6.12197 8.08328 6.46242 7.79141 6.89924C7.49954 7.33606 7.34375 7.84962 7.34375 8.37498C7.34581 9.07882 7.62633 9.75325 8.12402 10.251C8.62172 10.7486 9.29615 11.0292 10 11.0312ZM10 16.0312C11.6098 16.0343 13.1714 15.4825 14.4219 14.4687C13.9623 13.7069 13.3138 13.0767 12.539 12.6393C11.7643 12.2018 10.8897 11.972 10 11.972C9.1103 11.972 8.2357 12.2018 7.46097 12.6393C6.68624 13.0767 6.03767 13.7069 5.57813 14.4687C6.82952 15.4808 8.39055 16.0324 10 16.0312Z" fill="#E2E8F0"/>
<path d="M19.7031 9.3281L19.7738 9.39881L19.7031 9.3281ZM17.8281 11.2031L17.7574 11.1324L17.7557 11.1341L17.8281 11.2031ZM17.1719 11.2031L17.2443 11.1341L17.2426 11.1324L17.1719 11.2031ZM15.2969 9.3281L15.2262 9.39881L15.2969 9.3281ZM15.9531 8.67185L15.8824 8.74256L15.8827 8.74282L15.9531 8.67185ZM17.0312 9.74216L16.9608 9.81313L17.1313 9.98235V9.74216H17.0312ZM17.0312 8.99998H17.1313V8.99994L17.0312 8.99998ZM4.09375 5.18747L4.17713 5.24269L4.17775 5.24173L4.09375 5.18747ZM3.44531 5.32029L3.50028 5.23673L3.4987 5.23573L3.44531 5.32029ZM3.24116 5.02935L3.14349 5.05079L3.24116 5.02935ZM3.30469 4.67966L3.38858 4.73409L3.38871 4.73389L3.30469 4.67966ZM17.9688 8.99998H18.0688V8.99996L17.9688 8.99998ZM17.9688 9.74216H17.8687V9.98235L18.0392 9.81313L17.9688 9.74216ZM19.0469 8.67185L19.1173 8.74282L19.1176 8.74256L19.0469 8.67185ZM19.375 8.53594V8.43594V8.53594ZM16.6953 13.3203L16.6114 13.2659L16.6113 13.2661L16.6953 13.3203ZM2.03125 8.99998H1.93125V8.99999L2.03125 8.99998ZM2.03125 8.25779H2.13125V8.0176L1.9608 8.18682L2.03125 8.25779ZM0.953125 9.3281L0.882644 9.2571L0.880711 9.25913L0.953125 9.3281ZM0.296875 9.3281L0.369375 9.25905L0.365841 9.25569L0.296875 9.3281ZM0.296875 8.67185L0.365861 8.74429L0.367586 8.74256L0.296875 8.67185ZM2.17188 6.79685L2.24261 6.86758L2.24429 6.86582L2.17188 6.79685ZM2.82812 6.79685L2.75569 6.86584L2.75741 6.86756L2.82812 6.79685ZM4.70312 8.67185L4.63241 8.74256L4.70312 8.67185ZM4.83904 8.99998H4.93904H4.83904ZM4.04688 9.3281L4.11759 9.25739L4.11733 9.25713L4.04688 9.3281ZM2.96875 8.25779L3.0392 8.18682L2.86875 8.0176V8.25779H2.96875ZM2.96875 8.99998L3.06875 9.00006V8.99998H2.96875ZM4.88281 13.8125L4.81019 13.8812L4.89769 13.9737L4.96679 13.8668L4.88281 13.8125ZM8.00781 11.3672L8.04031 11.4617L8.23153 11.396L8.06325 11.2839L8.00781 11.3672ZM10 4.78239V4.68239V4.78239ZM11.9922 11.3672L11.9368 11.2839L11.768 11.3963L11.9599 11.4618L11.9922 11.3672ZM15.1172 13.8203L15.0329 13.8741L15.1017 13.9818L15.1897 13.8892L15.1172 13.8203ZM15.9062 12.8125L15.8229 12.7573L15.822 12.7586L15.9062 12.8125ZM16.5547 12.6797L16.4997 12.7632L16.5013 12.7642L16.5547 12.6797ZM10 11.0312L9.99971 11.1312H10V11.0312ZM7.34375 8.37498H7.24375L7.24375 8.37527L7.34375 8.37498ZM10 16.0312L10.0002 15.9312L9.99993 15.9312L10 16.0312ZM14.4219 14.4687L14.4849 14.5464L14.5525 14.4916L14.5075 14.4171L14.4219 14.4687ZM10 11.972V11.872V11.972ZM5.57812 14.4687L5.4925 14.4171L5.44749 14.4917L5.51524 14.5465L5.57812 14.4687ZM19.6324 9.25739L17.7574 11.1324L17.8988 11.2738L19.7738 9.39881L19.6324 9.25739ZM17.7557 11.1341C17.7227 11.1688 17.6831 11.1963 17.6391 11.2152L17.7179 11.399C17.7867 11.3695 17.8489 11.3263 17.9005 11.2721L17.7557 11.1341ZM17.6391 11.2152C17.5951 11.234 17.5478 11.2437 17.5 11.2437V11.4437C17.5749 11.4437 17.649 11.4285 17.7179 11.399L17.6391 11.2152ZM17.5 11.2437C17.4522 11.2437 17.4049 11.234 17.3609 11.2152L17.2821 11.399C17.351 11.4285 17.4251 11.4437 17.5 11.4437V11.2437ZM17.3609 11.2152C17.3169 11.1963 17.2773 11.1688 17.2443 11.1341L17.0995 11.2721C17.1511 11.3263 17.2133 11.3695 17.2821 11.399L17.3609 11.2152ZM17.2426 11.1324L15.3676 9.25739L15.2262 9.39881L17.1012 11.2738L17.2426 11.1324ZM15.3676 9.25739C15.2993 9.18912 15.261 9.09652 15.261 8.99998H15.061C15.061 9.14957 15.1204 9.29303 15.2262 9.39881L15.3676 9.25739ZM15.261 8.99998C15.261 8.90343 15.2993 8.81083 15.3676 8.74256L15.2262 8.60114C15.1204 8.70692 15.061 8.85038 15.061 8.99998H15.261ZM15.3676 8.74256C15.4359 8.67429 15.5285 8.63594 15.625 8.63594V8.43594C15.4754 8.43594 15.3319 8.49536 15.2262 8.60114L15.3676 8.74256ZM15.625 8.63594C15.7215 8.63594 15.8141 8.67429 15.8824 8.74256L16.0238 8.60114C15.9181 8.49536 15.7746 8.43594 15.625 8.43594V8.63594ZM15.8827 8.74282L16.9608 9.81313L17.1017 9.6712L16.0236 8.60088L15.8827 8.74282ZM17.1313 9.74216V8.99998H16.9312V9.74216H17.1313ZM17.1313 8.99994C17.1307 7.46078 16.6322 5.96312 15.7102 4.73068L15.55 4.85049C16.4462 6.04836 16.9307 7.50402 16.9312 9.00001L17.1313 8.99994ZM15.7102 4.73068C14.7882 3.49824 13.4922 2.59718 12.0158 2.16211L11.9592 2.35396C13.3942 2.77682 14.6539 3.65261 15.55 4.85049L15.7102 4.73068ZM12.0158 2.16211C10.5394 1.72704 8.96187 1.78132 7.51888 2.31682L7.58846 2.50433C8.99098 1.98384 10.5243 1.93109 11.9592 2.35396L12.0158 2.16211ZM7.51888 2.31682C6.07588 2.85233 4.84487 3.84033 4.00975 5.13322L4.17775 5.24173C4.98945 3.9851 6.18594 3.02482 7.58846 2.50433L7.51888 2.31682ZM4.01037 5.13226C3.95648 5.21364 3.87253 5.27034 3.77691 5.28992L3.81704 5.48585C3.96452 5.45565 4.09401 5.3682 4.17713 5.24269L4.01037 5.13226ZM3.77691 5.28992C3.68129 5.3095 3.58181 5.29038 3.50027 5.23674L3.39036 5.40383C3.51613 5.48656 3.66956 5.51606 3.81704 5.48585L3.77691 5.28992ZM3.4987 5.23573C3.4583 5.21023 3.42337 5.17696 3.39593 5.13785L3.23221 5.25273C3.27486 5.31351 3.32915 5.36521 3.39193 5.40485L3.4987 5.23573ZM3.39593 5.13785C3.36848 5.09874 3.34908 5.05458 3.33884 5.00791L3.14349 5.05079C3.15941 5.12331 3.18956 5.19195 3.23221 5.25273L3.39593 5.13785ZM3.33884 5.00791C3.32859 4.96125 3.32772 4.91302 3.33625 4.86601L3.13948 4.83027C3.1262 4.90332 3.12757 4.97827 3.14349 5.05079L3.33884 5.00791ZM3.33625 4.86601C3.34479 4.81901 3.36258 4.77417 3.38858 4.73409L3.22079 4.62524C3.18039 4.68753 3.15275 4.75722 3.13948 4.83027L3.33625 4.86601ZM3.38871 4.73389C4.3099 3.30662 5.66825 2.21579 7.26072 1.62442L7.1911 1.43693C5.55815 2.04333 4.16528 3.16189 3.22067 4.62543L3.38871 4.73389ZM7.26072 1.62442C8.8532 1.03306 10.5943 0.972918 12.2238 1.453L12.2803 1.26115C10.6094 0.768869 8.82405 0.830535 7.1911 1.43693L7.26072 1.62442ZM12.2238 1.453C13.8533 1.93307 15.2836 2.92758 16.3011 4.28789L16.4613 4.1681C15.4179 2.77322 13.9512 1.75343 12.2803 1.26115L12.2238 1.453ZM16.3011 4.28789C17.3186 5.6482 17.8685 7.30125 17.8687 8.99999L18.0688 8.99996C18.0685 7.25805 17.5046 5.56298 16.4613 4.1681L16.3011 4.28789ZM17.8687 8.99998V9.74216H18.0688V8.99998H17.8687ZM18.0392 9.81313L19.1173 8.74282L18.9764 8.60088L17.8983 9.6712L18.0392 9.81313ZM19.1176 8.74256C19.1859 8.67429 19.2785 8.63594 19.375 8.63594V8.43594C19.2254 8.43594 19.0819 8.49536 18.9762 8.60114L19.1176 8.74256ZM19.375 8.63594C19.4715 8.63594 19.5641 8.67429 19.6324 8.74256L19.7738 8.60114C19.6681 8.49536 19.5246 8.43594 19.375 8.43594V8.63594ZM19.6324 8.74256C19.7007 8.81083 19.739 8.90343 19.739 8.99998H19.939C19.939 8.85038 19.8796 8.70692 19.7738 8.60114L19.6324 8.74256ZM19.739 8.99998C19.739 9.09652 19.7007 9.18912 19.6324 9.25739L19.7738 9.39881C19.8796 9.29303 19.939 9.14957 19.939 8.99998H19.739ZM16.6113 13.2661C15.6901 14.6933 14.3318 15.7842 12.7393 16.3755L12.8089 16.563C14.4419 15.9566 15.8347 14.8381 16.7793 13.3745L16.6113 13.2661ZM12.7393 16.3755C11.1468 16.9669 9.40571 17.027 7.77622 16.547L7.7197 16.7388C9.3906 17.2311 11.1759 17.1694 12.8089 16.563L12.7393 16.3755ZM7.77622 16.547C6.14673 16.0669 4.71636 15.0724 3.69888 13.7121L3.53873 13.8318C4.58207 15.2267 6.0488 16.2465 7.7197 16.7388L7.77622 16.547ZM3.69888 13.7121C2.68141 12.3517 2.13146 10.6987 2.13125 8.99996L1.93125 8.99999C1.93147 10.7419 2.49539 12.437 3.53873 13.8318L3.69888 13.7121ZM2.13125 8.99998V8.25779H1.93125V8.99998H2.13125ZM1.9608 8.18682L0.882672 9.25713L1.02358 9.39907L2.1017 8.32876L1.9608 8.18682ZM0.880711 9.25913C0.84773 9.29377 0.808059 9.32133 0.764103 9.34017L0.842887 9.524C0.911738 9.49449 0.973878 9.45131 1.02554 9.39707L0.880711 9.25913ZM0.764103 9.34017C0.720146 9.35901 0.672822 9.36873 0.625 9.36873V9.56873C0.699908 9.56873 0.774036 9.55351 0.842887 9.524L0.764103 9.34017ZM0.625 9.36873C0.577178 9.36873 0.529854 9.35901 0.485897 9.34017L0.407113 9.524C0.475964 9.55351 0.550092 9.56873 0.625 9.56873V9.36873ZM0.485897 9.34017C0.441941 9.32133 0.40227 9.29377 0.369289 9.25913L0.224461 9.39707C0.276122 9.45131 0.338262 9.49449 0.407113 9.524L0.485897 9.34017ZM0.365841 9.25569C0.33121 9.2227 0.30364 9.18303 0.284802 9.13908L0.100973 9.21786C0.130481 9.28671 0.173666 9.34885 0.227909 9.40051L0.365841 9.25569ZM0.284802 9.13908C0.265964 9.09512 0.25625 9.0478 0.25625 8.99998H0.05625C0.05625 9.07488 0.0714652 9.14901 0.100973 9.21786L0.284802 9.13908ZM0.25625 8.99998C0.25625 8.95215 0.265964 8.90483 0.284802 8.86087L0.100973 8.78209C0.0714652 8.85094 0.05625 8.92507 0.05625 8.99998H0.25625ZM0.284802 8.86087C0.30364 8.81692 0.33121 8.77725 0.365841 8.74426L0.227909 8.59944C0.173666 8.6511 0.130481 8.71324 0.100973 8.78209L0.284802 8.86087ZM0.367586 8.74256L2.24259 6.86756L2.10116 6.72614L0.226164 8.60114L0.367586 8.74256ZM2.24429 6.86582C2.27727 6.83119 2.31694 6.80362 2.3609 6.78478L2.28211 6.60095C2.21326 6.63046 2.15112 6.67364 2.09946 6.72788L2.24429 6.86582ZM2.3609 6.78478C2.40485 6.76594 2.45218 6.75623 2.5 6.75623V6.55623C2.42509 6.55623 2.35096 6.57144 2.28211 6.60095L2.3609 6.78478ZM2.5 6.75623C2.54782 6.75623 2.59515 6.76594 2.6391 6.78478L2.71789 6.60095C2.64904 6.57144 2.57491 6.55623 2.5 6.55623V6.75623ZM2.6391 6.78478C2.68306 6.80362 2.72273 6.83119 2.75571 6.86582L2.90054 6.72788C2.84888 6.67364 2.78674 6.63046 2.71789 6.60095L2.6391 6.78478ZM2.75741 6.86756L4.63241 8.74256L4.77384 8.60114L2.89884 6.72614L2.75741 6.86756ZM4.63241 8.74256C4.66622 8.77637 4.69303 8.8165 4.71133 8.86066L4.8961 8.78413C4.86776 8.71569 4.82621 8.65352 4.77384 8.60114L4.63241 8.74256ZM4.71133 8.86066C4.72962 8.90483 4.73904 8.95217 4.73904 8.99998H4.93904C4.93904 8.9259 4.92445 8.85256 4.8961 8.78413L4.71133 8.86066ZM4.73904 8.99998C4.73904 9.04778 4.72962 9.09512 4.71133 9.13929L4.8961 9.21582C4.92445 9.14739 4.93904 9.07405 4.93904 8.99998H4.73904ZM4.71133 9.13929C4.69303 9.18345 4.66622 9.22359 4.63241 9.25739L4.77384 9.39881C4.82621 9.34644 4.86776 9.28426 4.8961 9.21582L4.71133 9.13929ZM4.63241 9.25739C4.59861 9.29119 4.55848 9.31801 4.51431 9.3363L4.59085 9.52108C4.65928 9.49273 4.72146 9.45119 4.77384 9.39881L4.63241 9.25739ZM4.51431 9.3363C4.47014 9.3546 4.42281 9.36401 4.375 9.36401V9.56401C4.44907 9.56401 4.52242 9.54943 4.59085 9.52108L4.51431 9.3363ZM4.375 9.36401C4.32719 9.36401 4.27986 9.3546 4.23569 9.3363L4.15915 9.52108C4.22758 9.54943 4.30093 9.56401 4.375 9.56401V9.36401ZM4.23569 9.3363C4.19152 9.31801 4.15139 9.29119 4.11759 9.25739L3.97616 9.39881C4.02854 9.45119 4.09072 9.49273 4.15915 9.52108L4.23569 9.3363ZM4.11733 9.25713L3.0392 8.18682L2.8983 8.32875L3.97642 9.39907L4.11733 9.25713ZM2.86875 8.25779V8.99998H3.06875V8.25779H2.86875ZM2.86875 8.99989C2.86722 10.8155 3.56208 12.5626 4.81019 13.8812L4.95544 13.7437C3.74253 12.4623 3.06726 10.7645 3.06875 9.00006L2.86875 8.99989ZM4.96679 13.8668C5.69296 12.7434 6.77532 11.8965 8.04031 11.4617L7.97531 11.2726C6.66794 11.7219 5.54932 12.5972 4.79883 13.7582L4.96679 13.8668ZM8.06325 11.2839C7.43906 10.8682 6.96522 10.2626 6.71178 9.55677L6.52355 9.62436C6.79149 10.3706 7.29246 11.0108 7.95238 11.4504L8.06325 11.2839ZM6.71178 9.55677C6.45834 8.85092 6.43877 8.08225 6.65595 7.36441L6.46451 7.3065C6.2349 8.06543 6.2556 8.8781 6.52355 9.62436L6.71178 9.55677ZM6.65595 7.36441C6.87312 6.64658 7.31553 6.01767 7.91774 5.5707L7.79855 5.4101C7.16185 5.88266 6.69413 6.54757 6.46451 7.3065L6.65595 7.36441ZM7.91774 5.5707C8.51996 5.12372 9.25003 4.88239 10 4.88239V4.68239C9.2071 4.68239 8.43524 4.93753 7.79855 5.4101L7.91774 5.5707ZM10 4.88239C10.75 4.88239 11.48 5.12372 12.0823 5.5707L12.2015 5.4101C11.5648 4.93753 10.7929 4.68239 10 4.68239V4.88239ZM12.0823 5.5707C12.6845 6.01767 13.1269 6.64658 13.3441 7.36441L13.5355 7.3065C13.3059 6.54757 12.8381 5.88266 12.2015 5.4101L12.0823 5.5707ZM13.3441 7.36441C13.5612 8.08225 13.5417 8.85092 13.2882 9.55677L13.4765 9.62436C13.7444 8.8781 13.7651 8.06543 13.5355 7.3065L13.3441 7.36441ZM13.2882 9.55677C13.0348 10.2626 12.5609 10.8682 11.9368 11.2839L12.0476 11.4504C12.7075 11.0108 13.2085 10.3706 13.4765 9.62436L13.2882 9.55677ZM11.9599 11.4618C13.2279 11.8947 14.3113 12.7452 15.0329 13.8741L15.2014 13.7664C14.4554 12.5993 13.3353 11.7201 12.0245 11.2725L11.9599 11.4618ZM15.1897 13.8892C15.4886 13.5745 15.7568 13.232 15.9905 12.8663L15.822 12.7586C15.5951 13.1136 15.3348 13.446 15.0447 13.7514L15.1897 13.8892ZM15.9896 12.8677C16.0435 12.7863 16.1275 12.7296 16.2231 12.71L16.183 12.5141C16.0355 12.5443 15.906 12.6317 15.8229 12.7573L15.9896 12.8677ZM16.2231 12.71C16.3187 12.6904 16.4182 12.7096 16.4997 12.7632L16.6096 12.5961C16.4839 12.5134 16.3304 12.4839 16.183 12.5141L16.2231 12.71ZM16.5013 12.7642C16.5417 12.7897 16.5766 12.823 16.6041 12.8621L16.7678 12.7472C16.7251 12.6864 16.6709 12.6347 16.6081 12.5951L16.5013 12.7642ZM16.6041 12.8621C16.6315 12.9012 16.6509 12.9454 16.6612 12.992L16.8565 12.9492C16.8406 12.8766 16.8104 12.808 16.7678 12.7472L16.6041 12.8621ZM16.6612 12.992C16.6714 13.0387 16.6723 13.0869 16.6637 13.1339L16.8605 13.1697C16.8738 13.0966 16.8724 13.0217 16.8565 12.9492L16.6612 12.992ZM16.6637 13.1339C16.6552 13.1809 16.6374 13.2258 16.6114 13.2659L16.7792 13.3747C16.8196 13.3124 16.8473 13.2427 16.8605 13.1697L16.6637 13.1339ZM10 11.1312C10.5451 11.1312 11.078 10.9696 11.5313 10.6667L11.4202 10.5004C10.9998 10.7813 10.5056 10.9312 10 10.9312V11.1312ZM11.5313 10.6667C11.9846 10.3639 12.3378 9.93338 12.5464 9.42975L12.3617 9.35321C12.1682 9.8203 11.8405 10.2195 11.4202 10.5004L11.5313 10.6667ZM12.5464 9.42975C12.7551 8.92611 12.8096 8.37192 12.7033 7.83726L12.5071 7.87628C12.6058 8.37214 12.5551 8.88612 12.3617 9.35321L12.5464 9.42975ZM12.7033 7.83726C12.5969 7.3026 12.3344 6.81148 11.949 6.42601L11.8075 6.56743C12.165 6.92493 12.4085 7.38041 12.5071 7.87628L12.7033 7.83726ZM11.949 6.42601C11.5635 6.04054 11.0724 5.77804 10.5377 5.67169L10.4987 5.86784C10.9946 5.96648 11.45 6.20994 11.8075 6.56743L11.949 6.42601ZM10.5377 5.67169C10.0031 5.56533 9.44887 5.61992 8.94523 5.82853L9.02177 6.01331C9.48886 5.81983 10.0028 5.76921 10.4987 5.86784L10.5377 5.67169ZM8.94523 5.82853C8.44159 6.03715 8.01112 6.39042 7.70826 6.84368L7.87456 6.9548C8.15544 6.53443 8.55467 6.20678 9.02177 6.01331L8.94523 5.82853ZM7.70826 6.84368C7.4054 7.29695 7.24375 7.82984 7.24375 8.37498H7.44375C7.44375 7.8694 7.59367 7.37517 7.87456 6.9548L7.70826 6.84368ZM7.24375 8.37527C7.24589 9.10554 7.53693 9.80528 8.05331 10.3217L8.19473 10.1802C7.71572 9.70122 7.44573 9.05211 7.44375 8.37468L7.24375 8.37527ZM8.05331 10.3217C8.56969 10.838 9.26944 11.1291 9.99971 11.1312L10.0003 10.9312C9.32287 10.9292 8.67375 10.6593 8.19473 10.1802L8.05331 10.3217ZM9.99981 16.1312C11.6326 16.1344 13.2165 15.5747 14.4849 14.5464L14.3589 14.391C13.1263 15.3903 11.587 15.9343 10.0002 15.9312L9.99981 16.1312ZM14.5075 14.4171C14.0391 13.6405 13.3779 12.9981 12.5882 12.5522L12.4899 12.7264C13.2496 13.1553 13.8856 13.7733 14.3362 14.5204L14.5075 14.4171ZM12.5882 12.5522C11.7985 12.1063 10.9069 11.872 10 11.872V12.072C10.8725 12.072 11.7301 12.2974 12.4899 12.7264L12.5882 12.5522ZM10 11.872C9.09307 11.872 8.20153 12.1063 7.4118 12.5522L7.51014 12.7264C8.26986 12.2974 9.12753 12.072 10 12.072V11.872ZM7.4118 12.5522C6.62207 12.9981 5.96094 13.6405 5.4925 14.4171L5.66375 14.5204C6.1144 13.7733 6.75041 13.1553 7.51014 12.7264L7.4118 12.5522ZM5.51524 14.5465C6.78445 15.573 8.36771 16.1324 10.0001 16.1312L9.99993 15.9312C8.41339 15.9324 6.87459 15.3887 5.64101 14.391L5.51524 14.5465Z" fill="#E2E8F0" mask="url(#path-1-outside-1_2_2767)"/>
</svg>
