<svg width="19" height="16" viewBox="0 0 19 16" fill="none" xmlns="http://www.w3.org/2000/svg">
<mask id="path-1-outside-1_236_3470" maskUnits="userSpaceOnUse" x="-0.851562" y="-0.570312" width="20" height="17" fill="black">
<rect fill="white" x="-0.851562" y="-0.570312" width="20" height="17"/>
<path d="M18.718 8.31077L16.9367 10.092C16.8965 10.1342 16.8482 10.1678 16.7946 10.1908C16.741 10.2138 16.6833 10.2256 16.625 10.2256C16.5667 10.2256 16.509 10.2138 16.4554 10.1908C16.4018 10.1678 16.3535 10.1342 16.3133 10.092L14.532 8.31077C14.4494 8.2281 14.4029 8.11597 14.4029 7.99905C14.4029 7.88213 14.4494 7.77 14.532 7.68733C14.6147 7.60466 14.7268 7.55821 14.8438 7.55821C14.9607 7.55821 15.0728 7.60466 15.1555 7.68733L16.1797 8.70413V7.99905C16.1792 6.55736 15.7122 5.15453 14.8486 4.00013C13.985 2.84573 12.771 2.00173 11.3881 1.59421C10.0052 1.18668 8.52761 1.23752 7.17599 1.73912C5.82437 2.24072 4.67131 3.16615 3.88906 4.37717C3.82399 4.47545 3.7226 4.54391 3.60713 4.56756C3.49166 4.59122 3.37152 4.56812 3.27305 4.50335C3.22404 4.4724 3.18166 4.43204 3.14837 4.3846C3.11507 4.33715 3.09153 4.28357 3.0791 4.22696C3.06668 4.17035 3.06561 4.11183 3.07597 4.0548C3.08633 3.99778 3.10791 3.94338 3.13945 3.89475C4.02571 2.52161 5.33254 1.47215 6.86462 0.903214C8.3967 0.334278 10.0718 0.276421 11.6394 0.738291C13.2071 1.20016 14.5832 2.15695 15.5621 3.46567C16.541 4.77439 17.0701 6.36474 17.0703 7.99905V8.70413L18.0945 7.68733C18.1772 7.60466 18.2893 7.55821 18.4063 7.55821C18.5232 7.55821 18.6353 7.60466 18.718 7.68733C18.8006 7.77 18.8471 7.88213 18.8471 7.99905C18.8471 8.11597 18.8006 8.2281 18.718 8.31077ZM15.8605 12.1033C14.9743 13.4765 13.6675 14.5259 12.1354 15.0949C10.6033 15.6638 8.92825 15.7217 7.36056 15.2598C5.79288 14.7979 4.41675 13.8411 3.43787 12.5324C2.45898 11.2237 1.92989 9.63336 1.92969 7.99905V7.29397L0.905469 8.31077C0.865264 8.35298 0.816903 8.38659 0.76332 8.40956C0.709737 8.43252 0.652047 8.44436 0.59375 8.44436C0.535453 8.44436 0.477763 8.43252 0.42418 8.40956C0.370597 8.38659 0.322236 8.35298 0.282031 8.31077C0.239816 8.27056 0.206207 8.2222 0.183243 8.16862C0.160279 8.11504 0.148437 8.05735 0.148438 7.99905C0.148438 7.94075 0.160279 7.88306 0.183243 7.82948C0.206207 7.7759 0.239816 7.72754 0.282031 7.68733L2.06328 5.90608C2.10349 5.86387 2.15185 5.83026 2.20543 5.80729C2.25901 5.78433 2.3167 5.77249 2.375 5.77249C2.4333 5.77249 2.49099 5.78433 2.54457 5.80729C2.59815 5.83026 2.64651 5.86387 2.68672 5.90608L4.46797 7.68733C4.5089 7.72827 4.54138 7.77686 4.56353 7.83035C4.58568 7.88383 4.59709 7.94116 4.59709 7.99905C4.59709 8.05694 4.58568 8.11427 4.56353 8.16775C4.54138 8.22124 4.5089 8.26983 4.46797 8.31077C4.42703 8.3517 4.37844 8.38418 4.32495 8.40633C4.27147 8.42848 4.21414 8.43989 4.15625 8.43989C4.09836 8.43989 4.04103 8.42848 3.98755 8.40633C3.93406 8.38418 3.88547 8.3517 3.84453 8.31077L2.82031 7.29397V7.99905C2.81888 9.69958 3.46969 11.3359 4.63867 12.5709C5.34008 11.4859 6.38555 10.6678 7.60742 10.2479C6.99747 9.84162 6.53444 9.24986 6.28678 8.56011C6.03912 7.87036 6.01999 7.11922 6.23222 6.41775C6.44444 5.71629 6.87676 5.10173 7.46524 4.66495C8.05372 4.22817 8.76714 3.99234 9.5 3.99234C10.2329 3.99234 10.9463 4.22817 11.5348 4.66495C12.1232 5.10173 12.5556 5.71629 12.7678 6.41775C12.98 7.11922 12.9609 7.87036 12.7132 8.56011C12.4656 9.24986 12.0025 9.84162 11.3926 10.2479C12.6175 10.6661 13.6642 11.4877 14.3613 12.5783C14.6411 12.2838 14.8921 11.9632 15.1109 11.6209C15.176 11.5227 15.2774 11.4542 15.3929 11.4305C15.5083 11.4069 15.6285 11.43 15.727 11.4948C15.776 11.5257 15.8183 11.5661 15.8516 11.6135C15.8849 11.6609 15.9085 11.7145 15.9209 11.7711C15.9333 11.8278 15.9344 11.8863 15.924 11.9433C15.9137 12.0003 15.8921 12.0547 15.8605 12.1033ZM9.5 9.92874C9.99909 9.92874 10.487 9.78074 10.9019 9.50346C11.3169 9.22618 11.6404 8.83207 11.8314 8.37098C12.0223 7.90988 12.0723 7.4025 11.975 6.913C11.8776 6.4235 11.6372 5.97387 11.2843 5.62096C10.9314 5.26805 10.4818 5.02772 9.9923 4.93035C9.5028 4.83298 8.99542 4.88295 8.53432 5.07395C8.07322 5.26494 7.67912 5.58838 7.40184 6.00335C7.12456 6.41833 6.97656 6.90621 6.97656 7.4053C6.97852 8.07395 7.24501 8.71466 7.71782 9.18748C8.19064 9.66029 8.83135 9.92678 9.5 9.92874ZM9.5 14.6787C11.0293 14.6817 12.5129 14.1575 13.7008 13.1944C13.2642 12.4706 12.6481 11.872 11.9121 11.4564C11.1761 11.0408 10.3452 10.8225 9.5 10.8225C8.65479 10.8225 7.82391 11.0408 7.08792 11.4564C6.35193 11.872 5.73578 12.4706 5.29922 13.1944C6.48804 14.1559 7.97103 14.6799 9.5 14.6787Z"/>
</mask>
<path d="M18.718 8.31077L16.9367 10.092C16.8965 10.1342 16.8482 10.1678 16.7946 10.1908C16.741 10.2138 16.6833 10.2256 16.625 10.2256C16.5667 10.2256 16.509 10.2138 16.4554 10.1908C16.4018 10.1678 16.3535 10.1342 16.3133 10.092L14.532 8.31077C14.4494 8.2281 14.4029 8.11597 14.4029 7.99905C14.4029 7.88213 14.4494 7.77 14.532 7.68733C14.6147 7.60466 14.7268 7.55821 14.8438 7.55821C14.9607 7.55821 15.0728 7.60466 15.1555 7.68733L16.1797 8.70413V7.99905C16.1792 6.55736 15.7122 5.15453 14.8486 4.00013C13.985 2.84573 12.771 2.00173 11.3881 1.59421C10.0052 1.18668 8.52761 1.23752 7.17599 1.73912C5.82437 2.24072 4.67131 3.16615 3.88906 4.37717C3.82399 4.47545 3.7226 4.54391 3.60713 4.56756C3.49166 4.59122 3.37152 4.56812 3.27305 4.50335C3.22404 4.4724 3.18166 4.43204 3.14837 4.3846C3.11507 4.33715 3.09153 4.28357 3.0791 4.22696C3.06668 4.17035 3.06561 4.11183 3.07597 4.0548C3.08633 3.99778 3.10791 3.94338 3.13945 3.89475C4.02571 2.52161 5.33254 1.47215 6.86462 0.903214C8.3967 0.334278 10.0718 0.276421 11.6394 0.738291C13.2071 1.20016 14.5832 2.15695 15.5621 3.46567C16.541 4.77439 17.0701 6.36474 17.0703 7.99905V8.70413L18.0945 7.68733C18.1772 7.60466 18.2893 7.55821 18.4063 7.55821C18.5232 7.55821 18.6353 7.60466 18.718 7.68733C18.8006 7.77 18.8471 7.88213 18.8471 7.99905C18.8471 8.11597 18.8006 8.2281 18.718 8.31077ZM15.8605 12.1033C14.9743 13.4765 13.6675 14.5259 12.1354 15.0949C10.6033 15.6638 8.92825 15.7217 7.36056 15.2598C5.79288 14.7979 4.41675 13.8411 3.43787 12.5324C2.45898 11.2237 1.92989 9.63336 1.92969 7.99905V7.29397L0.905469 8.31077C0.865264 8.35298 0.816903 8.38659 0.76332 8.40956C0.709737 8.43252 0.652047 8.44436 0.59375 8.44436C0.535453 8.44436 0.477763 8.43252 0.42418 8.40956C0.370597 8.38659 0.322236 8.35298 0.282031 8.31077C0.239816 8.27056 0.206207 8.2222 0.183243 8.16862C0.160279 8.11504 0.148437 8.05735 0.148438 7.99905C0.148438 7.94075 0.160279 7.88306 0.183243 7.82948C0.206207 7.7759 0.239816 7.72754 0.282031 7.68733L2.06328 5.90608C2.10349 5.86387 2.15185 5.83026 2.20543 5.80729C2.25901 5.78433 2.3167 5.77249 2.375 5.77249C2.4333 5.77249 2.49099 5.78433 2.54457 5.80729C2.59815 5.83026 2.64651 5.86387 2.68672 5.90608L4.46797 7.68733C4.5089 7.72827 4.54138 7.77686 4.56353 7.83035C4.58568 7.88383 4.59709 7.94116 4.59709 7.99905C4.59709 8.05694 4.58568 8.11427 4.56353 8.16775C4.54138 8.22124 4.5089 8.26983 4.46797 8.31077C4.42703 8.3517 4.37844 8.38418 4.32495 8.40633C4.27147 8.42848 4.21414 8.43989 4.15625 8.43989C4.09836 8.43989 4.04103 8.42848 3.98755 8.40633C3.93406 8.38418 3.88547 8.3517 3.84453 8.31077L2.82031 7.29397V7.99905C2.81888 9.69958 3.46969 11.3359 4.63867 12.5709C5.34008 11.4859 6.38555 10.6678 7.60742 10.2479C6.99747 9.84162 6.53444 9.24986 6.28678 8.56011C6.03912 7.87036 6.01999 7.11922 6.23222 6.41775C6.44444 5.71629 6.87676 5.10173 7.46524 4.66495C8.05372 4.22817 8.76714 3.99234 9.5 3.99234C10.2329 3.99234 10.9463 4.22817 11.5348 4.66495C12.1232 5.10173 12.5556 5.71629 12.7678 6.41775C12.98 7.11922 12.9609 7.87036 12.7132 8.56011C12.4656 9.24986 12.0025 9.84162 11.3926 10.2479C12.6175 10.6661 13.6642 11.4877 14.3613 12.5783C14.6411 12.2838 14.8921 11.9632 15.1109 11.6209C15.176 11.5227 15.2774 11.4542 15.3929 11.4305C15.5083 11.4069 15.6285 11.43 15.727 11.4948C15.776 11.5257 15.8183 11.5661 15.8516 11.6135C15.8849 11.6609 15.9085 11.7145 15.9209 11.7711C15.9333 11.8278 15.9344 11.8863 15.924 11.9433C15.9137 12.0003 15.8921 12.0547 15.8605 12.1033ZM9.5 9.92874C9.99909 9.92874 10.487 9.78074 10.9019 9.50346C11.3169 9.22618 11.6404 8.83207 11.8314 8.37098C12.0223 7.90988 12.0723 7.4025 11.975 6.913C11.8776 6.4235 11.6372 5.97387 11.2843 5.62096C10.9314 5.26805 10.4818 5.02772 9.9923 4.93035C9.5028 4.83298 8.99542 4.88295 8.53432 5.07395C8.07322 5.26494 7.67912 5.58838 7.40184 6.00335C7.12456 6.41833 6.97656 6.90621 6.97656 7.4053C6.97852 8.07395 7.24501 8.71466 7.71782 9.18748C8.19064 9.66029 8.83135 9.92678 9.5 9.92874ZM9.5 14.6787C11.0293 14.6817 12.5129 14.1575 13.7008 13.1944C13.2642 12.4706 12.6481 11.872 11.9121 11.4564C11.1761 11.0408 10.3452 10.8225 9.5 10.8225C8.65479 10.8225 7.82391 11.0408 7.08792 11.4564C6.35193 11.872 5.73578 12.4706 5.29922 13.1944C6.48804 14.1559 7.97103 14.6799 9.5 14.6787Z" fill="#585BC0"/>
<path d="M18.718 8.31077L16.9367 10.092C16.8965 10.1342 16.8482 10.1678 16.7946 10.1908C16.741 10.2138 16.6833 10.2256 16.625 10.2256C16.5667 10.2256 16.509 10.2138 16.4554 10.1908C16.4018 10.1678 16.3535 10.1342 16.3133 10.092L14.532 8.31077C14.4494 8.2281 14.4029 8.11597 14.4029 7.99905C14.4029 7.88213 14.4494 7.77 14.532 7.68733C14.6147 7.60466 14.7268 7.55821 14.8438 7.55821C14.9607 7.55821 15.0728 7.60466 15.1555 7.68733L16.1797 8.70413V7.99905C16.1792 6.55736 15.7122 5.15453 14.8486 4.00013C13.985 2.84573 12.771 2.00173 11.3881 1.59421C10.0052 1.18668 8.52761 1.23752 7.17599 1.73912C5.82437 2.24072 4.67131 3.16615 3.88906 4.37717C3.82399 4.47545 3.7226 4.54391 3.60713 4.56756C3.49166 4.59122 3.37152 4.56812 3.27305 4.50335C3.22404 4.4724 3.18166 4.43204 3.14837 4.3846C3.11507 4.33715 3.09153 4.28357 3.0791 4.22696C3.06668 4.17035 3.06561 4.11183 3.07597 4.0548C3.08633 3.99778 3.10791 3.94338 3.13945 3.89475C4.02571 2.52161 5.33254 1.47215 6.86462 0.903214C8.3967 0.334278 10.0718 0.276421 11.6394 0.738291C13.2071 1.20016 14.5832 2.15695 15.5621 3.46567C16.541 4.77439 17.0701 6.36474 17.0703 7.99905V8.70413L18.0945 7.68733C18.1772 7.60466 18.2893 7.55821 18.4063 7.55821C18.5232 7.55821 18.6353 7.60466 18.718 7.68733C18.8006 7.77 18.8471 7.88213 18.8471 7.99905C18.8471 8.11597 18.8006 8.2281 18.718 8.31077ZM15.8605 12.1033C14.9743 13.4765 13.6675 14.5259 12.1354 15.0949C10.6033 15.6638 8.92825 15.7217 7.36056 15.2598C5.79288 14.7979 4.41675 13.8411 3.43787 12.5324C2.45898 11.2237 1.92989 9.63336 1.92969 7.99905V7.29397L0.905469 8.31077C0.865264 8.35298 0.816903 8.38659 0.76332 8.40956C0.709737 8.43252 0.652047 8.44436 0.59375 8.44436C0.535453 8.44436 0.477763 8.43252 0.42418 8.40956C0.370597 8.38659 0.322236 8.35298 0.282031 8.31077C0.239816 8.27056 0.206207 8.2222 0.183243 8.16862C0.160279 8.11504 0.148437 8.05735 0.148438 7.99905C0.148438 7.94075 0.160279 7.88306 0.183243 7.82948C0.206207 7.7759 0.239816 7.72754 0.282031 7.68733L2.06328 5.90608C2.10349 5.86387 2.15185 5.83026 2.20543 5.80729C2.25901 5.78433 2.3167 5.77249 2.375 5.77249C2.4333 5.77249 2.49099 5.78433 2.54457 5.80729C2.59815 5.83026 2.64651 5.86387 2.68672 5.90608L4.46797 7.68733C4.5089 7.72827 4.54138 7.77686 4.56353 7.83035C4.58568 7.88383 4.59709 7.94116 4.59709 7.99905C4.59709 8.05694 4.58568 8.11427 4.56353 8.16775C4.54138 8.22124 4.5089 8.26983 4.46797 8.31077C4.42703 8.3517 4.37844 8.38418 4.32495 8.40633C4.27147 8.42848 4.21414 8.43989 4.15625 8.43989C4.09836 8.43989 4.04103 8.42848 3.98755 8.40633C3.93406 8.38418 3.88547 8.3517 3.84453 8.31077L2.82031 7.29397V7.99905C2.81888 9.69958 3.46969 11.3359 4.63867 12.5709C5.34008 11.4859 6.38555 10.6678 7.60742 10.2479C6.99747 9.84162 6.53444 9.24986 6.28678 8.56011C6.03912 7.87036 6.01999 7.11922 6.23222 6.41775C6.44444 5.71629 6.87676 5.10173 7.46524 4.66495C8.05372 4.22817 8.76714 3.99234 9.5 3.99234C10.2329 3.99234 10.9463 4.22817 11.5348 4.66495C12.1232 5.10173 12.5556 5.71629 12.7678 6.41775C12.98 7.11922 12.9609 7.87036 12.7132 8.56011C12.4656 9.24986 12.0025 9.84162 11.3926 10.2479C12.6175 10.6661 13.6642 11.4877 14.3613 12.5783C14.6411 12.2838 14.8921 11.9632 15.1109 11.6209C15.176 11.5227 15.2774 11.4542 15.3929 11.4305C15.5083 11.4069 15.6285 11.43 15.727 11.4948C15.776 11.5257 15.8183 11.5661 15.8516 11.6135C15.8849 11.6609 15.9085 11.7145 15.9209 11.7711C15.9333 11.8278 15.9344 11.8863 15.924 11.9433C15.9137 12.0003 15.8921 12.0547 15.8605 12.1033ZM9.5 9.92874C9.99909 9.92874 10.487 9.78074 10.9019 9.50346C11.3169 9.22618 11.6404 8.83207 11.8314 8.37098C12.0223 7.90988 12.0723 7.4025 11.975 6.913C11.8776 6.4235 11.6372 5.97387 11.2843 5.62096C10.9314 5.26805 10.4818 5.02772 9.9923 4.93035C9.5028 4.83298 8.99542 4.88295 8.53432 5.07395C8.07322 5.26494 7.67912 5.58838 7.40184 6.00335C7.12456 6.41833 6.97656 6.90621 6.97656 7.4053C6.97852 8.07395 7.24501 8.71466 7.71782 9.18748C8.19064 9.66029 8.83135 9.92678 9.5 9.92874ZM9.5 14.6787C11.0293 14.6817 12.5129 14.1575 13.7008 13.1944C13.2642 12.4706 12.6481 11.872 11.9121 11.4564C11.1761 11.0408 10.3452 10.8225 9.5 10.8225C8.65479 10.8225 7.82391 11.0408 7.08792 11.4564C6.35193 11.872 5.73578 12.4706 5.29922 13.1944C6.48804 14.1559 7.97103 14.6799 9.5 14.6787Z" stroke="#585BC0" stroke-width="0.4" mask="url(#path-1-outside-1_236_3470)"/>
</svg>
